<svg width="24" height="24" viewBox="0 0 24 24" fill="none" xmlns="http://www.w3.org/2000/svg">
<circle cx="12" cy="12" r="12" fill="#6B6B6B"/>
<path d="M7.78799 11.0241L10.9335 8.61147L10.9335 8.61156L10.9388 8.6072C11.0402 8.52381 11.1091 8.40078 11.1059 8.25988C11.1026 8.11936 11.0285 7.99965 10.9248 7.92015C10.8222 7.84144 10.6923 7.8018 10.5638 7.80006C10.4352 7.79832 10.3044 7.83443 10.1993 7.90953L10.1992 7.90944L10.1938 7.91355L5.98097 11.1443L5.98087 11.1444C5.87484 11.2258 5.8 11.3492 5.8 11.4933C5.8 11.6373 5.87484 11.7608 5.98087 11.8422L5.98097 11.8422L10.1914 15.0712C10.2431 15.113 10.3024 15.1446 10.3649 15.1659C10.4286 15.1877 10.496 15.199 10.5635 15.1999C10.631 15.2009 10.6987 15.1914 10.7631 15.1714C10.8274 15.1515 10.8886 15.121 10.9424 15.0798C10.9961 15.0386 11.0424 14.9866 11.0749 14.9248C11.1076 14.8627 11.125 14.7932 11.1234 14.7214C11.1217 14.6496 11.1012 14.5812 11.066 14.5207C11.0317 14.4617 10.9848 14.4123 10.9311 14.3733L7.78799 11.9625H16.6489C16.7804 11.9625 16.9139 11.9229 17.0189 11.8424C17.125 11.761 17.2 11.6375 17.2 11.4933C17.2 11.3491 17.125 11.2256 17.0189 11.1442C16.9139 11.0637 16.7804 11.0241 16.6489 11.0241H7.78799Z" fill="white" stroke="white" stroke-width="0.4"/>
</svg>
