<svg width="20" height="20" viewBox="0 0 20 20" fill="none" xmlns="http://www.w3.org/2000/svg">
<path d="M18.7891 2.91771C18.95 2.76247 19.0784 2.57675 19.1667 2.37138C19.255 2.16601 19.3016 1.9451 19.3036 1.72154C19.3057 1.49799 19.2632 1.27626 19.1786 1.06931C19.0941 0.862349 18.9691 0.674305 18.8111 0.516147C18.6531 0.357988 18.4652 0.232882 18.2583 0.148128C18.0514 0.0633736 17.8298 0.0206695 17.6062 0.022506C17.3827 0.0243425 17.1617 0.0706833 16.9562 0.158825C16.7508 0.246966 16.5649 0.375143 16.4096 0.535876L9.66139 7.2818L2.91547 0.535876C2.76133 0.370457 2.57545 0.237778 2.36892 0.145756C2.16239 0.0537328 1.93944 0.00425072 1.71338 0.000262024C1.48731 -0.00372668 1.26275 0.0378598 1.05311 0.12254C0.843459 0.207219 0.653016 0.333258 0.493137 0.493137C0.333258 0.653016 0.207219 0.843458 0.12254 1.05311C0.0378598 1.26275 -0.00372668 1.48731 0.000262024 1.71338C0.00425072 1.93944 0.0537328 2.16239 0.145756 2.36892C0.237778 2.57545 0.370457 2.76133 0.535876 2.91547L7.27731 9.66363L0.531387 16.4096C0.233982 16.7287 0.0720727 17.1509 0.0797687 17.5871C0.0874647 18.0232 0.264166 18.4394 0.572644 18.7479C0.881122 19.0564 1.29729 19.2331 1.73348 19.2408C2.16966 19.2485 2.59181 19.0865 2.91098 18.7891L9.66139 12.0432L16.4073 18.7914C16.7265 19.0888 17.1486 19.2507 17.5848 19.243C18.021 19.2353 18.4372 19.0586 18.7456 18.7501C19.0541 18.4417 19.2308 18.0255 19.2385 17.5893C19.2462 17.1531 19.0843 16.731 18.7869 16.4118L12.0455 9.66363L18.7891 2.91771Z" fill="black" fill-opacity="0.6"/>
</svg>
