<svg width="64" height="39" viewBox="0 0 64 39" fill="none" xmlns="http://www.w3.org/2000/svg">
<path d="M63.2179 20.8795L39.2187 38.4286C38.7184 38.7945 38.0397 39 37.3321 39C36.6245 39 35.9459 38.7945 35.4455 38.4286C34.9451 38.0627 34.664 37.5665 34.664 37.049C34.664 36.5316 34.9451 36.0354 35.4455 35.6695L54.8949 21.4499H2.66658C1.95936 21.4499 1.2811 21.2445 0.781023 20.8788C0.280943 20.5131 0 20.0171 0 19.5C0 18.9829 0.280943 18.4869 0.781023 18.1212C1.2811 17.7555 1.95936 17.5501 2.66658 17.5501H54.8949L35.4455 3.33052C34.9451 2.96464 34.664 2.46841 34.664 1.95098C34.664 1.43354 34.9451 0.937306 35.4455 0.571427C35.9459 0.205548 36.6245 0 37.3321 0C38.0397 0 38.7184 0.205548 39.2187 0.571427L63.2179 18.1204C63.4659 18.3015 63.6625 18.5166 63.7967 18.7533C63.9309 18.99 64 19.2438 64 19.5C64 19.7562 63.9309 20.01 63.7967 20.2467C63.6625 20.4834 63.4659 20.6985 63.2179 20.8795Z" fill="white"/>
</svg>
